<?xml version="1.0" encoding="UTF-8"?>
<svg width="1200px" height="600px" viewBox="0 0 1200 600" version="1.1" xmlns="http://www.w3.org/2000/svg" xmlns:xlink="http://www.w3.org/1999/xlink">
    <!-- Generator: Sketch 52.6 (67491) - http://www.bohemiancoding.com/sketch -->
    <title>4 copy 2</title>
    <desc>Created with Sketch.</desc>
    <defs>
        <linearGradient x1="6.48978337%" y1="94.2569222%" x2="104.301536%" y2="14.1351418%" id="linearGradient-1">
            <stop stop-color="#ED2024" offset="0%"></stop>
            <stop stop-color="#EE2724" offset="18.37%"></stop>
            <stop stop-color="#EE3724" offset="35.61%"></stop>
            <stop stop-color="#F04C23" offset="52.41%"></stop>
            <stop stop-color="#F26422" offset="68.94%"></stop>
            <stop stop-color="#F57E20" offset="85.11%"></stop>
            <stop stop-color="#F8991D" offset="100%"></stop>
        </linearGradient>
        <linearGradient x1="-4.54984012%" y1="84.388539%" x2="93.2315655%" y2="5.78454431%" id="linearGradient-2">
            <stop stop-color="#ED2024" offset="0%"></stop>
            <stop stop-color="#EE2724" offset="18.37%"></stop>
            <stop stop-color="#EE3724" offset="35.61%"></stop>
            <stop stop-color="#F04C23" offset="52.41%"></stop>
            <stop stop-color="#F26422" offset="68.94%"></stop>
            <stop stop-color="#F57E20" offset="85.11%"></stop>
            <stop stop-color="#F8991D" offset="100%"></stop>
        </linearGradient>
    </defs>
    <g id="4-copy-2" stroke="none" stroke-width="1" fill="none" fill-rule="evenodd">
        <g id="grinswap" transform="translate(36.000000, 170.000000)">
            <path d="M257.579002,104.691767 C263.413068,134.670503 258.84305,166.799886 242.345606,195.247099 C206.952268,256.345065 129.78053,277.721207 68.3931843,244.158057 C67.5180743,243.669274 66.4484954,243.76703 65.6706199,244.386156 L57.535338,251.001029 C56.1092329,252.17411 53.9700751,251.392056 53.5811373,249.599849 L40.0007265,187.165875 C39.5793773,185.178154 41.5888891,183.548875 43.4363436,184.3961 L101.258427,210.920764 C102.911412,211.670232 103.203115,213.951223 101.77701,215.091718 L98.2765703,217.926664 C96.7856421,219.132331 97.1745799,221.576249 99.0220343,222.195375 C141.934836,236.924058 190.649293,219.751457 214.374497,178.856551 C220.111329,168.917949 223.935884,158.425392 225.912984,147.737321 C226.237099,145.945114 224.616525,144.413592 222.866305,144.86979 L168.026078,159.402959 C166.697208,159.761401 165.368337,158.946761 165.011811,157.643338 L158.010931,130.923161 C157.654404,129.587152 158.464691,128.251143 159.761151,127.892702 L225.653693,110.42683 L254.532323,102.769218 C255.893605,102.410777 257.31971,103.290587 257.579002,104.691767 Z" id="XMLID_10_" fill="url(#linearGradient-1)"></path>
            <path d="M223.630518,74.1062876 C224.052166,76.0800004 222.041229,77.6977979 220.192465,76.8565432 L162.32938,50.5188013 C160.675222,49.7746145 160.383312,47.5096981 161.810428,46.3772399 L165.734999,43.206357 C167.19455,42.0091869 166.870205,39.6795587 165.086309,39.0000837 C121.170044,21.8190752 70.0857621,38.6441683 45.5977412,80.5774773 C32.5915208,102.935437 29.4778122,128.334857 34.9916712,151.663496 C35.2835814,152.957734 34.5051542,154.251971 33.2402101,154.607887 L6.643949,161.596772 C5.31413594,161.952687 3.95188842,161.143788 3.62754377,159.784839 C-3.92968652,128.496637 0.124621578,94.3287553 17.6392325,64.3024353 C53.7063574,2.53493006 133.138362,-18.3670125 195.055755,17.6128019 C195.055755,17.6128019 195.055755,17.6128019 195.055755,17.6128019 C195.931485,18.1304971 197.034257,18.0334293 197.845119,17.4186663 L206.115907,10.7533409 C207.543024,9.58852678 209.683698,10.3650695 210.072912,12.1446467 L223.630518,74.1062876 Z" id="XMLID_8_" fill="url(#linearGradient-2)"></path>
        </g>
        <g id="Group" transform="translate(331.000000, 192.000000)" fill="#000000">
            <path d="M76.89,107 L68.09,107 L66,97.76 C62.333315,101.940021 58.666685,104.836659 55,106.45 C51.333315,108.063341 47.1166905,108.87 42.35,108.87 C36.483304,108.87 31.22169,107.788344 26.565,105.625 C21.9083101,103.461656 17.9666828,100.510019 14.74,96.77 C11.5133172,93.0299813 9.03834195,88.6666916 7.315,83.68 C5.59165805,78.6933084 4.73,73.3766949 4.73,67.73 C4.73,62.1566388 5.59165805,56.8766916 7.315,51.89 C9.03834195,46.9033084 11.5133172,42.5400187 14.74,38.8 C17.9666828,35.0599813 21.9083101,32.090011 26.565,29.89 C31.22169,27.689989 36.483304,26.59 42.35,26.59 C46.6033546,26.59 50.6549807,27.1583277 54.505,28.295 C58.3550192,29.4316723 61.7833183,31.1183222 64.79,33.355 C67.7966817,35.5916778 70.2899901,38.3966498 72.27,41.77 C74.2500099,45.1433502 75.4966641,49.029978 76.01,53.43 L62.59,53.43 C62.2233315,50.8633205 61.435006,48.6083431 60.225,46.665 C59.014994,44.7216569 57.4933425,43.0900066 55.66,41.77 C53.8266575,40.4499934 51.7733447,39.4600033 49.5,38.8 C47.2266553,38.1399967 44.8433458,37.81 42.35,37.81 C38.1699791,37.81 34.5583485,38.6533249 31.515,40.34 C28.4716514,42.0266751 25.9966762,44.2816526 24.09,47.105 C22.1833238,49.9283475 20.7716713,53.1366487 19.855,56.73 C18.9383288,60.3233513 18.48,63.9899813 18.48,67.73 C18.48,71.4700187 18.9383288,75.1366487 19.855,78.73 C20.7716713,82.3233513 22.1833238,85.5316526 24.09,88.355 C25.9966762,91.1783475 28.4716514,93.4333249 31.515,95.12 C34.5583485,96.8066751 38.1699791,97.65 42.35,97.65 C45.8700176,97.7233337 48.9866531,97.2650049 51.7,96.275 C54.4133469,95.284995 56.7049906,93.8550093 58.575,91.985 C60.4450094,90.1149906 61.8566619,87.8233469 62.81,85.11 C63.7633381,82.3966531 64.2766663,79.3900165 64.35,76.09 L43.45,76.09 L43.45,65.64 L76.89,65.64 L76.89,107 Z M90.09,50.13 L101.86,50.13 L101.86,61.13 L102.08,61.13 C102.446669,59.5899923 103.161661,58.086674 104.225,56.62 C105.288339,55.153326 106.571659,53.815006 108.075,52.605 C109.578341,51.3949939 111.246657,50.423337 113.08,49.69 C114.913342,48.956663 116.783324,48.59 118.69,48.59 C120.156674,48.59 121.164997,48.6266663 121.715,48.7 C122.265003,48.7733337 122.83333,48.8466663 123.42,48.92 L123.42,61.02 C122.539996,60.8733326 121.641671,60.7450005 120.725,60.635 C119.808329,60.5249994 118.910004,60.47 118.03,60.47 C115.903323,60.47 113.905009,60.8916624 112.035,61.735 C110.164991,62.5783376 108.53334,63.8249917 107.14,65.475 C105.74666,67.1250082 104.646671,69.1599879 103.84,71.58 C103.033329,74.0000121 102.63,76.7866509 102.63,79.94 L102.63,107 L90.09,107 L90.09,50.13 Z M129.14,28.46 L141.68,28.46 L141.68,40.34 L129.14,40.34 L129.14,28.46 Z M129.14,50.13 L141.68,50.13 L141.68,107 L129.14,107 L129.14,50.13 Z M155.32,50.13 L167.2,50.13 L167.2,58.49 L167.42,58.71 C169.326676,55.5566509 171.819985,53.0816756 174.9,51.285 C177.980015,49.4883243 181.389981,48.59 185.13,48.59 C191.363364,48.59 196.276649,50.2033172 199.87,53.43 C203.463351,56.6566828 205.26,61.4966344 205.26,67.95 L205.26,107 L192.72,107 L192.72,71.25 C192.573333,66.7766443 191.620009,63.5316768 189.86,61.515 C188.099991,59.4983232 185.350019,58.49 181.61,58.49 C179.483323,58.49 177.576675,58.8749962 175.89,59.645 C174.203325,60.4150039 172.773339,61.4783265 171.6,62.835 C170.426661,64.1916734 169.510003,65.7866575 168.85,67.62 C168.189997,69.4533425 167.86,71.3966564 167.86,73.45 L167.86,107 L155.32,107 L155.32,50.13 Z M229.24,80.82 C229.24,83.8266817 229.753328,86.3933227 230.78,88.52 C231.806672,90.6466773 233.236658,92.3883266 235.07,93.745 C236.903342,95.1016734 239.011655,96.0916636 241.395,96.715 C243.778345,97.3383364 246.363319,97.65 249.15,97.65 C252.156682,97.65 254.723323,97.3016702 256.85,96.605 C258.976677,95.9083299 260.699993,95.0100055 262.02,93.91 C263.340007,92.8099945 264.29333,91.5450072 264.88,90.115 C265.46667,88.6849929 265.76,87.236674 265.76,85.77 C265.76,82.7633183 265.081673,80.5450072 263.725,79.115 C262.368327,77.6849929 260.883341,76.6766696 259.27,76.09 C256.483319,75.0633282 253.238352,74.0916712 249.535,73.175 C245.831648,72.2583288 241.266694,71.066674 235.84,69.6 C232.46665,68.7199956 229.661678,67.5650071 227.425,66.135 C225.188322,64.7049928 223.410007,63.1100088 222.09,61.35 C220.769993,59.5899912 219.835003,57.7200099 219.285,55.74 C218.734997,53.7599901 218.46,51.7433436 218.46,49.69 C218.46,45.7299802 219.284992,42.3016812 220.935,39.405 C222.585008,36.5083189 224.766653,34.1066762 227.48,32.2 C230.193347,30.2933238 233.273316,28.8816713 236.72,27.965 C240.166684,27.0483287 243.649982,26.59 247.17,26.59 C251.276687,26.59 255.144982,27.1216614 258.775,28.185 C262.405018,29.2483386 265.594986,30.8433227 268.345,32.97 C271.095014,35.0966773 273.276659,37.7183177 274.89,40.835 C276.503341,43.9516822 277.31,47.5633128 277.31,51.67 L263.56,51.67 C263.193331,46.6099747 261.470015,43.0350105 258.39,40.945 C255.309985,38.8549895 251.38669,37.81 246.62,37.81 C245.006659,37.81 243.356675,37.9749983 241.67,38.305 C239.983325,38.6350016 238.44334,39.1849961 237.05,39.955 C235.65666,40.7250039 234.501671,41.7699934 233.585,43.09 C232.668329,44.4100066 232.21,46.0599901 232.21,48.04 C232.21,50.8266806 233.071658,53.0083255 234.795,54.585 C236.518342,56.1616746 238.773319,57.3533293 241.56,58.16 C241.853335,58.2333337 243.008323,58.5449973 245.025,59.095 C247.041677,59.6450028 249.296654,60.2499967 251.79,60.91 C254.283346,61.5700033 256.721655,62.2116635 259.105,62.835 C261.488345,63.4583365 263.193328,63.9166652 264.22,64.21 C266.786679,65.0166707 269.023324,66.1166597 270.93,67.51 C272.836676,68.9033403 274.43166,70.4983244 275.715,72.295 C276.99834,74.0916757 277.951664,76.0166564 278.575,78.07 C279.198336,80.1233436 279.51,82.1766564 279.51,84.23 C279.51,88.630022 278.611676,92.3883177 276.815,95.505 C275.018324,98.6216822 272.653348,101.16999 269.72,103.15 C266.786652,105.13001 263.450019,106.578329 259.71,107.495 C255.969981,108.411671 252.156686,108.87 248.27,108.87 C243.796644,108.87 239.58002,108.320006 235.62,107.22 C231.65998,106.119994 228.213348,104.433345 225.28,102.16 C222.346652,99.8866553 220.000009,96.9716844 218.24,93.415 C216.479991,89.8583156 215.563334,85.6600242 215.49,80.82 L229.24,80.82 Z M284.57,50.13 L297.88,50.13 L308.99,92.59 L309.21,92.59 L319.88,50.13 L332.53,50.13 L342.76,92.59 L342.98,92.59 L354.53,50.13 L367.29,50.13 L349.47,107 L336.6,107 L326.04,64.76 L325.82,64.76 L315.37,107 L302.17,107 L284.57,50.13 Z M422.95,94.35 C422.95,95.8900077 423.151665,96.9899967 423.555,97.65 C423.958335,98.3100033 424.746661,98.64 425.92,98.64 L427.24,98.64 C427.753336,98.64 428.339997,98.5666674 429,98.42 L429,107.11 C428.559998,107.256667 427.99167,107.421666 427.295,107.605 C426.59833,107.788334 425.883337,107.953333 425.15,108.1 C424.416663,108.246667 423.683337,108.356666 422.95,108.43 C422.216663,108.503334 421.593336,108.54 421.08,108.54 C418.513321,108.54 416.386675,108.026672 414.7,107 C413.013325,105.973328 411.913336,104.17668 411.4,101.61 C408.906654,104.030012 405.845018,105.789995 402.215,106.89 C398.584982,107.990005 395.08335,108.54 391.71,108.54 C389.143321,108.54 386.686678,108.19167 384.34,107.495 C381.993322,106.79833 379.921676,105.771673 378.125,104.415 C376.328324,103.058327 374.898339,101.33501 373.835,99.245 C372.771661,97.1549895 372.24,94.7166806 372.24,91.93 C372.24,88.4099824 372.88166,85.550011 374.165,83.35 C375.44834,81.149989 377.13499,79.4266729 379.225,78.18 C381.31501,76.9333271 383.661654,76.0350028 386.265,75.485 C388.868346,74.9349972 391.489987,74.5133348 394.13,74.22 C396.403345,73.7799978 398.566656,73.4683342 400.62,73.285 C402.673344,73.1016657 404.488325,72.7900022 406.065,72.35 C407.641675,71.9099978 408.888329,71.2316713 409.805,70.315 C410.721671,69.3983287 411.18,68.0233425 411.18,66.19 C411.18,64.5766586 410.795004,63.2566718 410.025,62.23 C409.254996,61.2033282 408.301672,60.4150027 407.165,59.865 C406.028328,59.3149973 404.76334,58.9483342 403.37,58.765 C401.97666,58.5816658 400.656673,58.49 399.41,58.49 C395.889982,58.49 392.993345,59.223326 390.72,60.69 C388.446655,62.156674 387.163335,64.4299846 386.87,67.51 L374.33,67.51 C374.550001,63.843315 375.429992,60.8000121 376.97,58.38 C378.510008,55.9599879 380.471655,54.016674 382.855,52.55 C385.238345,51.083326 387.933318,50.0566696 390.94,49.47 C393.946682,48.8833304 397.026651,48.59 400.18,48.59 C402.966681,48.59 405.716653,48.8833304 408.43,49.47 C411.143347,50.0566696 413.581656,51.0099934 415.745,52.33 C417.908344,53.6500066 419.649993,55.3549895 420.97,57.445 C422.290007,59.5350104 422.95,62.0833183 422.95,65.09 L422.95,94.35 Z M410.41,78.51 C408.503324,79.7566729 406.156681,80.508332 403.37,80.765 C400.583319,81.0216679 397.796681,81.4066641 395.01,81.92 C393.689993,82.1400011 392.406673,82.4516646 391.16,82.855 C389.913327,83.2583353 388.813338,83.8083299 387.86,84.505 C386.906662,85.2016701 386.155003,86.1183276 385.605,87.255 C385.054997,88.3916723 384.78,89.7666586 384.78,91.38 C384.78,92.7733403 385.183329,93.9466619 385.99,94.9 C386.796671,95.8533381 387.768328,96.6049972 388.905,97.155 C390.041672,97.7050028 391.288327,98.0899989 392.645,98.31 C394.001673,98.5300011 395.229994,98.64 396.33,98.64 C397.72334,98.64 399.226659,98.4566685 400.84,98.09 C402.453341,97.7233315 403.974993,97.1000044 405.405,96.22 C406.835007,95.3399956 408.026662,94.2216734 408.98,92.865 C409.933338,91.5083265 410.41,89.8400099 410.41,87.86 L410.41,78.51 Z M436.81,50.13 L448.69,50.13 L448.69,57.83 L448.91,57.83 C450.670009,54.5299835 453.126651,52.1650071 456.28,50.735 C459.433349,49.3049929 462.843315,48.59 466.51,48.59 C470.983356,48.59 474.888317,49.3783255 478.225,50.955 C481.561683,52.5316745 484.329989,54.6949862 486.53,57.445 C488.730011,60.1950137 490.379995,63.403315 491.48,67.07 C492.580006,70.736685 493.13,74.6599791 493.13,78.84 C493.13,82.6533524 492.635005,86.3566487 491.645,89.95 C490.654995,93.5433513 489.151677,96.7149863 487.135,99.465 C485.118323,102.215014 482.570015,104.414992 479.49,106.065 C476.409985,107.715008 472.780021,108.54 468.6,108.54 C466.766658,108.54 464.933343,108.375002 463.1,108.045 C461.266658,107.714998 459.506675,107.183337 457.82,106.45 C456.133325,105.716663 454.575007,104.781672 453.145,103.645 C451.714993,102.508328 450.523338,101.170008 449.57,99.63 L449.35,99.63 L449.35,128.01 L436.81,128.01 L436.81,50.13 Z M480.59,78.62 C480.59,76.0533205 480.260003,73.5600121 479.6,71.14 C478.939997,68.7199879 477.950007,66.5750094 476.63,64.705 C475.309993,62.8349907 473.66001,61.3316723 471.68,60.195 C469.69999,59.0583276 467.426679,58.49 464.86,58.49 C459.579974,58.49 455.60168,60.323315 452.925,63.99 C450.24832,67.656685 448.91,72.5333029 448.91,78.62 C448.91,81.4800143 449.25833,84.1383211 449.955,86.595 C450.65167,89.0516789 451.69666,91.1599912 453.09,92.92 C454.48334,94.6800088 456.151657,96.0733282 458.095,97.1 C460.038343,98.1266718 462.293321,98.64 464.86,98.64 C467.720014,98.64 470.13999,98.0533392 472.12,96.88 C474.10001,95.7066608 475.73166,94.1850094 477.015,92.315 C478.29834,90.4449906 479.214997,88.3183453 479.765,85.935 C480.315003,83.5516547 480.59,81.1133458 480.59,78.62 Z" id="GrinSwap"></path>
            <path d="M38.016,170.128 C37.6319981,168.378658 37.002671,166.810674 36.128,165.424 C35.253329,164.037326 34.186673,162.874671 32.928,161.936 C31.669327,160.997329 30.2826742,160.282669 28.768,159.792 C27.2533258,159.301331 25.6640083,159.056 24,159.056 C20.9706515,159.056 18.3680109,159.631994 16.192,160.784 C14.0159891,161.936006 12.2346736,163.461324 10.848,165.36 C9.4613264,167.258676 8.43733664,169.402655 7.776,171.792 C7.11466336,174.181345 6.784,176.634654 6.784,179.152 C6.784,181.626679 7.11466336,184.069321 7.776,186.48 C8.43733664,188.890679 9.4613264,191.045324 10.848,192.944 C12.2346736,194.842676 14.0159891,196.367994 16.192,197.52 C18.3680109,198.672006 20.9706515,199.248 24,199.248 C26.133344,199.248 28.0533248,198.864004 29.76,198.096 C31.4666752,197.327996 32.9386605,196.282673 34.176,194.96 C35.4133395,193.637327 36.4159962,192.090676 37.184,190.32 C37.9520038,188.549324 38.4426656,186.64001 38.656,184.592 L43.008,184.592 C42.7093318,187.408014 42.0480051,189.946655 41.024,192.208 C39.9999949,194.469345 38.6773414,196.389325 37.056,197.968 C35.4346586,199.546675 33.5253443,200.762662 31.328,201.616 C29.1306557,202.469338 26.6880134,202.896 24,202.896 C20.4159821,202.896 17.2693469,202.24534 14.56,200.944 C11.8506531,199.64266 9.60000896,197.904011 7.808,195.728 C6.01599104,193.551989 4.67200448,191.034681 3.776,188.176 C2.87999552,185.317319 2.432,182.309349 2.432,179.152 C2.432,175.994651 2.87999552,172.986681 3.776,170.128 C4.67200448,167.269319 6.01599104,164.741344 7.808,162.544 C9.60000896,160.346656 11.8506531,158.59734 14.56,157.296 C17.2693469,155.99466 20.4159821,155.344 24,155.344 C26.1760109,155.344 28.2986563,155.663997 30.368,156.304 C32.4373437,156.944003 34.3146582,157.893327 36,159.152 C37.6853418,160.410673 39.0933277,161.957324 40.224,163.792 C41.3546723,165.626676 42.0693318,167.738655 42.368,170.128 L38.016,170.128 Z M48.896,168.976 L52.608,168.976 L52.608,176.72 L52.736,176.72 C53.7600051,174.031987 55.3493226,171.962674 57.504,170.512 C59.6586774,169.061326 62.2293184,168.399999 65.216,168.528 L65.216,172.56 C63.3813242,172.474666 61.7173408,172.719997 60.224,173.296 C58.7306592,173.872003 57.4400054,174.693328 56.352,175.76 C55.2639946,176.826672 54.4213363,178.095993 53.824,179.568 C53.2266637,181.040007 52.928,182.650658 52.928,184.4 L52.928,202 L48.896,202 L48.896,168.976 Z M81.856,171.408 C79.9359904,171.408 78.2506739,171.813329 76.8,172.624 C75.3493261,173.434671 74.1440048,174.501327 73.184,175.824 C72.2239952,177.146673 71.4986691,178.650658 71.008,180.336 C70.5173309,182.021342 70.272,183.738658 70.272,185.488 C70.272,187.237342 70.5173309,188.954658 71.008,190.64 C71.4986691,192.325342 72.2239952,193.829327 73.184,195.152 C74.1440048,196.474673 75.3493261,197.541329 76.8,198.352 C78.2506739,199.162671 79.9359904,199.568 81.856,199.568 C83.7760096,199.568 85.4613261,199.162671 86.912,198.352 C88.3626739,197.541329 89.5679952,196.474673 90.528,195.152 C91.4880048,193.829327 92.2133309,192.325342 92.704,190.64 C93.1946691,188.954658 93.44,187.237342 93.44,185.488 C93.44,183.738658 93.1946691,182.021342 92.704,180.336 C92.2133309,178.650658 91.4880048,177.146673 90.528,175.824 C89.5679952,174.501327 88.3626739,173.434671 86.912,172.624 C85.4613261,171.813329 83.7760096,171.408 81.856,171.408 Z M81.856,168.016 C84.3733459,168.016 86.602657,168.485329 88.544,169.424 C90.485343,170.362671 92.1173267,171.621325 93.44,173.2 C94.7626733,174.778675 95.7653299,176.623989 96.448,178.736 C97.1306701,180.848011 97.472,183.098655 97.472,185.488 C97.472,187.877345 97.1306701,190.127989 96.448,192.24 C95.7653299,194.352011 94.7626733,196.197325 93.44,197.776 C92.1173267,199.354675 90.485343,200.602662 88.544,201.52 C86.602657,202.437338 84.3733459,202.896 81.856,202.896 C79.3386541,202.896 77.109343,202.437338 75.168,201.52 C73.226657,200.602662 71.5946733,199.354675 70.272,197.776 C68.9493267,196.197325 67.9466701,194.352011 67.264,192.24 C66.5813299,190.127989 66.24,187.877345 66.24,185.488 C66.24,183.098655 66.5813299,180.848011 67.264,178.736 C67.9466701,176.623989 68.9493267,174.778675 70.272,173.2 C71.5946733,171.621325 73.226657,170.362671 75.168,169.424 C77.109343,168.485329 79.3386541,168.016 81.856,168.016 Z M123.264,178.64 C123.221333,177.40266 122.965336,176.325338 122.496,175.408 C122.026664,174.490662 121.397337,173.733336 120.608,173.136 C119.818663,172.538664 118.912005,172.101335 117.888,171.824 C116.863995,171.546665 115.776006,171.408 114.624,171.408 C113.727996,171.408 112.821338,171.503999 111.904,171.696 C110.986662,171.888001 110.144004,172.207998 109.376,172.656 C108.607996,173.104002 107.989336,173.690663 107.52,174.416 C107.050664,175.141337 106.816,176.037328 106.816,177.104 C106.816,178.000004 107.039998,178.75733 107.488,179.376 C107.936002,179.99467 108.50133,180.517331 109.184,180.944 C109.86667,181.370669 110.613329,181.722665 111.424,182 C112.234671,182.277335 112.98133,182.501332 113.664,182.672 L119.04,183.888 C120.192006,184.058668 121.333328,184.367998 122.464,184.816 C123.594672,185.264002 124.597329,185.850663 125.472,186.576 C126.346671,187.301337 127.061331,188.197328 127.616,189.264 C128.170669,190.330672 128.448,191.589326 128.448,193.04 C128.448,194.832009 128.042671,196.357327 127.232,197.616 C126.421329,198.874673 125.386673,199.898663 124.128,200.688 C122.869327,201.477337 121.450675,202.042665 119.872,202.384 C118.293325,202.725335 116.736008,202.896 115.2,202.896 C111.317314,202.896 108.170679,201.978676 105.76,200.144 C103.349321,198.309324 101.973335,195.365354 101.632,191.312 L105.664,191.312 C105.834668,194.04268 106.826658,196.101326 108.64,197.488 C110.453342,198.874674 112.703987,199.568 115.392,199.568 C116.373338,199.568 117.386661,199.461334 118.432,199.248 C119.477339,199.034666 120.447996,198.672003 121.344,198.16 C122.240004,197.647997 122.975997,196.997337 123.552,196.208 C124.128003,195.418663 124.416,194.448006 124.416,193.296 C124.416,192.314662 124.213335,191.493337 123.808,190.832 C123.402665,190.170663 122.85867,189.616002 122.176,189.168 C121.49333,188.719998 120.714671,188.346668 119.84,188.048 C118.965329,187.749332 118.080004,187.493334 117.184,187.28 L112,186.128 C110.677327,185.786665 109.461339,185.392002 108.352,184.944 C107.242661,184.495998 106.272004,183.941337 105.44,183.28 C104.607996,182.618663 103.957336,181.808005 103.488,180.848 C103.018664,179.887995 102.784,178.704007 102.784,177.296 C102.784,175.631992 103.15733,174.202673 103.904,173.008 C104.65067,171.813327 105.621327,170.853337 106.816,170.128 C108.010673,169.402663 109.343993,168.869335 110.816,168.528 C112.288007,168.186665 113.749326,168.016 115.2,168.016 C116.864008,168.016 118.41066,168.229331 119.84,168.656 C121.26934,169.082669 122.527995,169.743996 123.616,170.64 C124.704005,171.536004 125.567997,172.645327 126.208,173.968 C126.848003,175.290673 127.210666,176.847991 127.296,178.64 L123.264,178.64 Z M154.048,178.64 C154.005333,177.40266 153.749336,176.325338 153.28,175.408 C152.810664,174.490662 152.181337,173.733336 151.392,173.136 C150.602663,172.538664 149.696005,172.101335 148.672,171.824 C147.647995,171.546665 146.560006,171.408 145.408,171.408 C144.511996,171.408 143.605338,171.503999 142.688,171.696 C141.770662,171.888001 140.928004,172.207998 140.16,172.656 C139.391996,173.104002 138.773336,173.690663 138.304,174.416 C137.834664,175.141337 137.6,176.037328 137.6,177.104 C137.6,178.000004 137.823998,178.75733 138.272,179.376 C138.720002,179.99467 139.28533,180.517331 139.968,180.944 C140.65067,181.370669 141.397329,181.722665 142.208,182 C143.018671,182.277335 143.76533,182.501332 144.448,182.672 L149.824,183.888 C150.976006,184.058668 152.117328,184.367998 153.248,184.816 C154.378672,185.264002 155.381329,185.850663 156.256,186.576 C157.130671,187.301337 157.845331,188.197328 158.4,189.264 C158.954669,190.330672 159.232,191.589326 159.232,193.04 C159.232,194.832009 158.826671,196.357327 158.016,197.616 C157.205329,198.874673 156.170673,199.898663 154.912,200.688 C153.653327,201.477337 152.234675,202.042665 150.656,202.384 C149.077325,202.725335 147.520008,202.896 145.984,202.896 C142.101314,202.896 138.954679,201.978676 136.544,200.144 C134.133321,198.309324 132.757335,195.365354 132.416,191.312 L136.448,191.312 C136.618668,194.04268 137.610658,196.101326 139.424,197.488 C141.237342,198.874674 143.487987,199.568 146.176,199.568 C147.157338,199.568 148.170661,199.461334 149.216,199.248 C150.261339,199.034666 151.231996,198.672003 152.128,198.16 C153.024004,197.647997 153.759997,196.997337 154.336,196.208 C154.912003,195.418663 155.2,194.448006 155.2,193.296 C155.2,192.314662 154.997335,191.493337 154.592,190.832 C154.186665,190.170663 153.64267,189.616002 152.96,189.168 C152.27733,188.719998 151.498671,188.346668 150.624,188.048 C149.749329,187.749332 148.864004,187.493334 147.968,187.28 L142.784,186.128 C141.461327,185.786665 140.245339,185.392002 139.136,184.944 C138.026661,184.495998 137.056004,183.941337 136.224,183.28 C135.391996,182.618663 134.741336,181.808005 134.272,180.848 C133.802664,179.887995 133.568,178.704007 133.568,177.296 C133.568,175.631992 133.94133,174.202673 134.688,173.008 C135.43467,171.813327 136.405327,170.853337 137.6,170.128 C138.794673,169.402663 140.127993,168.869335 141.6,168.528 C143.072007,168.186665 144.533326,168.016 145.984,168.016 C147.648008,168.016 149.19466,168.229331 150.624,168.656 C152.05334,169.082669 153.311995,169.743996 154.4,170.64 C155.488005,171.536004 156.351997,172.645327 156.992,173.968 C157.632003,175.290673 157.994666,176.847991 158.08,178.64 L154.048,178.64 Z M165.056,186.256 L165.056,182.544 L181.056,182.544 L181.056,186.256 L165.056,186.256 Z M212.032,179.344 C211.477331,176.869321 210.453341,174.928007 208.96,173.52 C207.466659,172.111993 205.376013,171.408 202.688,171.408 C200.76799,171.408 199.082674,171.813329 197.632,172.624 C196.181326,173.434671 194.976005,174.501327 194.016,175.824 C193.055995,177.146673 192.330669,178.650658 191.84,180.336 C191.349331,182.021342 191.104,183.738658 191.104,185.488 C191.104,187.237342 191.349331,188.954658 191.84,190.64 C192.330669,192.325342 193.055995,193.829327 194.016,195.152 C194.976005,196.474673 196.181326,197.541329 197.632,198.352 C199.082674,199.162671 200.76799,199.568 202.688,199.568 C203.92534,199.568 205.098661,199.333336 206.208,198.864 C207.317339,198.394664 208.298662,197.744004 209.152,196.912 C210.005338,196.079996 210.709331,195.088006 211.264,193.936 C211.818669,192.783994 212.159999,191.52534 212.288,190.16 L216.32,190.16 C215.765331,194.170687 214.293345,197.295989 211.904,199.536 C209.514655,201.776011 206.442685,202.896 202.688,202.896 C200.170654,202.896 197.941343,202.437338 196,201.52 C194.058657,200.602662 192.426673,199.354675 191.104,197.776 C189.781327,196.197325 188.77867,194.352011 188.096,192.24 C187.41333,190.127989 187.072,187.877345 187.072,185.488 C187.072,183.098655 187.41333,180.848011 188.096,178.736 C188.77867,176.623989 189.781327,174.778675 191.104,173.2 C192.426673,171.621325 194.058657,170.362671 196,169.424 C197.941343,168.485329 200.170654,168.016 202.688,168.016 C206.229351,168.016 209.226654,168.954657 211.68,170.832 C214.133346,172.709343 215.594664,175.546648 216.064,179.344 L212.032,179.344 Z M221.888,156.304 L225.92,156.304 L225.92,174.672 L226.048,174.672 C226.816004,172.666657 228.181324,171.056006 230.144,169.84 C232.106676,168.623994 234.261322,168.016 236.608,168.016 C238.912012,168.016 240.842659,168.314664 242.4,168.912 C243.957341,169.509336 245.205329,170.351995 246.144,171.44 C247.082671,172.528005 247.743998,173.861325 248.128,175.44 C248.512002,177.018675 248.704,178.789324 248.704,180.752 L248.704,202 L244.672,202 L244.672,181.392 C244.672,179.983993 244.544001,178.672006 244.288,177.456 C244.031999,176.239994 243.584003,175.184004 242.944,174.288 C242.303997,173.391996 241.440005,172.688003 240.352,172.176 C239.263995,171.663997 237.909341,171.408 236.288,171.408 C234.666659,171.408 233.226673,171.695997 231.968,172.272 C230.709327,172.848003 229.642671,173.637328 228.768,174.64 C227.893329,175.642672 227.210669,176.837326 226.72,178.224 C226.229331,179.610674 225.962667,181.114659 225.92,182.736 L225.92,202 L221.888,202 L221.888,156.304 Z M255.936,179.088 C256.064001,177.16799 256.46933,175.504007 257.152,174.096 C257.83467,172.687993 258.762661,171.536004 259.936,170.64 C261.109339,169.743996 262.485325,169.082669 264.064,168.656 C265.642675,168.229331 267.39199,168.016 269.312,168.016 C270.762674,168.016 272.213326,168.154665 273.664,168.432 C275.114674,168.709335 276.415994,169.231996 277.568,170 C278.720006,170.768004 279.658663,171.845326 280.384,173.232 C281.109337,174.618674 281.472,176.421322 281.472,178.64 L281.472,196.176 C281.472,197.797341 282.261325,198.608 283.84,198.608 C284.309336,198.608 284.735998,198.522668 285.12,198.352 L285.12,201.744 C284.650664,201.829334 284.234668,201.893333 283.872,201.936 C283.509332,201.978667 283.050669,202 282.496,202 C281.471995,202 280.65067,201.861335 280.032,201.584 C279.41333,201.306665 278.933335,200.912003 278.592,200.4 C278.250665,199.887997 278.026667,199.280004 277.92,198.576 C277.813333,197.871996 277.76,197.093338 277.76,196.24 L277.632,196.24 C276.906663,197.306672 276.17067,198.255996 275.424,199.088 C274.67733,199.920004 273.845338,200.613331 272.928,201.168 C272.010662,201.722669 270.965339,202.149332 269.792,202.448 C268.618661,202.746668 267.221341,202.896 265.6,202.896 C264.063992,202.896 262.624007,202.714668 261.28,202.352 C259.935993,201.989332 258.762672,201.413337 257.76,200.624 C256.757328,199.834663 255.968003,198.832006 255.392,197.616 C254.815997,196.399994 254.528,194.960008 254.528,193.296 C254.528,190.991988 255.039995,189.18934 256.064,187.888 C257.088005,186.58666 258.442658,185.59467 260.128,184.912 C261.813342,184.22933 263.711989,183.749335 265.824,183.472 C267.936011,183.194665 270.079989,182.928001 272.256,182.672 C273.109338,182.586666 273.855997,182.480001 274.496,182.352 C275.136003,182.223999 275.669331,182.000002 276.096,181.68 C276.522669,181.359998 276.853332,180.922669 277.088,180.368 C277.322668,179.813331 277.44,179.088004 277.44,178.192 C277.44,176.82666 277.216002,175.706671 276.768,174.832 C276.319998,173.957329 275.701337,173.264003 274.912,172.752 C274.122663,172.239997 273.205339,171.888001 272.16,171.696 C271.114661,171.503999 269.994673,171.408 268.8,171.408 C266.239987,171.408 264.149341,172.015994 262.528,173.232 C260.906659,174.448006 260.053334,176.399987 259.968,179.088 L255.936,179.088 Z M277.44,183.952 L277.312,183.952 C277.055999,184.421336 276.565337,184.762666 275.84,184.976 C275.114663,185.189334 274.474669,185.338666 273.92,185.424 C272.213325,185.722668 270.453342,185.989332 268.64,186.224 C266.826658,186.458668 265.173341,186.810664 263.68,187.28 C262.186659,187.749336 260.960005,188.421329 260,189.296 C259.039995,190.170671 258.56,191.418659 258.56,193.04 C258.56,194.064005 258.762665,194.970663 259.168,195.76 C259.573335,196.549337 260.11733,197.231997 260.8,197.808 C261.48267,198.384003 262.271996,198.821332 263.168,199.12 C264.064004,199.418668 264.981329,199.568 265.92,199.568 C267.456008,199.568 268.927993,199.333336 270.336,198.864 C271.744007,198.394664 272.970661,197.712004 274.016,196.816 C275.061339,195.919996 275.89333,194.832006 276.512,193.552 C277.13067,192.271994 277.44,190.821341 277.44,189.2 L277.44,183.952 Z M289.6,156.304 L293.632,156.304 L293.632,162.768 L289.6,162.768 L289.6,156.304 Z M289.6,168.976 L293.632,168.976 L293.632,202 L289.6,202 L289.6,168.976 Z M301.312,168.976 L305.344,168.976 L305.344,174.672 L305.472,174.672 C306.240004,172.666657 307.605324,171.056006 309.568,169.84 C311.530676,168.623994 313.685322,168.016 316.032,168.016 C318.336012,168.016 320.266659,168.314664 321.824,168.912 C323.381341,169.509336 324.629329,170.351995 325.568,171.44 C326.506671,172.528005 327.167998,173.861325 327.552,175.44 C327.936002,177.018675 328.128,178.789324 328.128,180.752 L328.128,202 L324.096,202 L324.096,181.392 C324.096,179.983993 323.968001,178.672006 323.712,177.456 C323.455999,176.239994 323.008003,175.184004 322.368,174.288 C321.727997,173.391996 320.864005,172.688003 319.776,172.176 C318.687995,171.663997 317.333341,171.408 315.712,171.408 C314.090659,171.408 312.650673,171.695997 311.392,172.272 C310.133327,172.848003 309.066671,173.637328 308.192,174.64 C307.317329,175.642672 306.634669,176.837326 306.144,178.224 C305.653331,179.610674 305.386667,181.114659 305.344,182.736 L305.344,202 L301.312,202 L301.312,168.976 Z M360.768,184.08 L378.752,184.08 L369.92,160.656 L360.768,184.08 Z M367.68,156.304 L372.544,156.304 L390.464,202 L385.792,202 L380.224,187.792 L359.424,187.792 L353.92,202 L349.312,202 L367.68,156.304 Z M400.256,168.976 L406.976,168.976 L406.976,172.368 L400.256,172.368 L400.256,194.64 C400.256,195.962673 400.437332,196.99733 400.8,197.744 C401.162668,198.49067 402.069326,198.906666 403.52,198.992 C404.672006,198.992 405.823994,198.928001 406.976,198.8 L406.976,202.192 C406.378664,202.192 405.781336,202.213333 405.184,202.256 C404.586664,202.298667 403.989336,202.32 403.392,202.32 C400.703987,202.32 398.826672,201.797339 397.76,200.752 C396.693328,199.706661 396.181333,197.776014 396.224,194.96 L396.224,172.368 L390.464,172.368 L390.464,168.976 L396.224,168.976 L396.224,159.056 L400.256,159.056 L400.256,168.976 Z M426.752,171.408 C424.83199,171.408 423.146674,171.813329 421.696,172.624 C420.245326,173.434671 419.040005,174.501327 418.08,175.824 C417.119995,177.146673 416.394669,178.650658 415.904,180.336 C415.413331,182.021342 415.168,183.738658 415.168,185.488 C415.168,187.237342 415.413331,188.954658 415.904,190.64 C416.394669,192.325342 417.119995,193.829327 418.08,195.152 C419.040005,196.474673 420.245326,197.541329 421.696,198.352 C423.146674,199.162671 424.83199,199.568 426.752,199.568 C428.67201,199.568 430.357326,199.162671 431.808,198.352 C433.258674,197.541329 434.463995,196.474673 435.424,195.152 C436.384005,193.829327 437.109331,192.325342 437.6,190.64 C438.090669,188.954658 438.336,187.237342 438.336,185.488 C438.336,183.738658 438.090669,182.021342 437.6,180.336 C437.109331,178.650658 436.384005,177.146673 435.424,175.824 C434.463995,174.501327 433.258674,173.434671 431.808,172.624 C430.357326,171.813329 428.67201,171.408 426.752,171.408 Z M426.752,168.016 C429.269346,168.016 431.498657,168.485329 433.44,169.424 C435.381343,170.362671 437.013327,171.621325 438.336,173.2 C439.658673,174.778675 440.66133,176.623989 441.344,178.736 C442.02667,180.848011 442.368,183.098655 442.368,185.488 C442.368,187.877345 442.02667,190.127989 441.344,192.24 C440.66133,194.352011 439.658673,196.197325 438.336,197.776 C437.013327,199.354675 435.381343,200.602662 433.44,201.52 C431.498657,202.437338 429.269346,202.896 426.752,202.896 C424.234654,202.896 422.005343,202.437338 420.064,201.52 C418.122657,200.602662 416.490673,199.354675 415.168,197.776 C413.845327,196.197325 412.84267,194.352011 412.16,192.24 C411.47733,190.127989 411.136,187.877345 411.136,185.488 C411.136,183.098655 411.47733,180.848011 412.16,178.736 C412.84267,176.623989 413.845327,174.778675 415.168,173.2 C416.490673,171.621325 418.122657,170.362671 420.064,169.424 C422.005343,168.485329 424.234654,168.016 426.752,168.016 Z M448.384,168.976 L452.096,168.976 L452.096,174.544 L452.288,174.544 C453.354672,172.49599 454.751991,170.896006 456.48,169.744 C458.208009,168.591994 460.415987,168.016 463.104,168.016 C465.280011,168.016 467.253324,168.549328 469.024,169.616 C470.794676,170.682672 471.978664,172.303989 472.576,174.48 C473.557338,172.303989 475.00799,170.682672 476.928,169.616 C478.84801,168.549328 480.895989,168.016 483.072,168.016 C490.368036,168.016 494.016,171.877295 494.016,179.6 L494.016,202 L489.984,202 L489.984,179.792 C489.984,177.06132 489.408006,174.98134 488.256,173.552 C487.103994,172.12266 485.077348,171.408 482.176,171.408 C480.426658,171.408 478.976006,171.738663 477.824,172.4 C476.671994,173.061337 475.75467,173.946661 475.072,175.056 C474.38933,176.165339 473.909335,177.43466 473.632,178.864 C473.354665,180.29334 473.216,181.775992 473.216,183.312 L473.216,202 L469.184,202 L469.184,179.6 C469.184,178.490661 469.066668,177.434672 468.832,176.432 C468.597332,175.429328 468.213336,174.55467 467.68,173.808 C467.146664,173.06133 466.432004,172.474669 465.536,172.048 C464.639996,171.621331 463.552006,171.408 462.272,171.408 C460.565325,171.408 459.082673,171.71733 457.824,172.336 C456.565327,172.95467 455.541337,173.807995 454.752,174.896 C453.962663,175.984005 453.376002,177.263993 452.992,178.736 C452.607998,180.208007 452.416,181.818658 452.416,183.568 L452.416,202 L448.384,202 L448.384,168.976 Z M501.76,156.304 L505.792,156.304 L505.792,162.768 L501.76,162.768 L501.76,156.304 Z M501.76,168.976 L505.792,168.976 L505.792,202 L501.76,202 L501.76,168.976 Z M536.832,179.344 C536.277331,176.869321 535.253341,174.928007 533.76,173.52 C532.266659,172.111993 530.176013,171.408 527.488,171.408 C525.56799,171.408 523.882674,171.813329 522.432,172.624 C520.981326,173.434671 519.776005,174.501327 518.816,175.824 C517.855995,177.146673 517.130669,178.650658 516.64,180.336 C516.149331,182.021342 515.904,183.738658 515.904,185.488 C515.904,187.237342 516.149331,188.954658 516.64,190.64 C517.130669,192.325342 517.855995,193.829327 518.816,195.152 C519.776005,196.474673 520.981326,197.541329 522.432,198.352 C523.882674,199.162671 525.56799,199.568 527.488,199.568 C528.72534,199.568 529.898661,199.333336 531.008,198.864 C532.117339,198.394664 533.098662,197.744004 533.952,196.912 C534.805338,196.079996 535.509331,195.088006 536.064,193.936 C536.618669,192.783994 536.959999,191.52534 537.088,190.16 L541.12,190.16 C540.565331,194.170687 539.093345,197.295989 536.704,199.536 C534.314655,201.776011 531.242685,202.896 527.488,202.896 C524.970654,202.896 522.741343,202.437338 520.8,201.52 C518.858657,200.602662 517.226673,199.354675 515.904,197.776 C514.581327,196.197325 513.57867,194.352011 512.896,192.24 C512.21333,190.127989 511.872,187.877345 511.872,185.488 C511.872,183.098655 512.21333,180.848011 512.896,178.736 C513.57867,176.623989 514.581327,174.778675 515.904,173.2 C517.226673,171.621325 518.858657,170.362671 520.8,169.424 C522.741343,168.485329 524.970654,168.016 527.488,168.016 C531.029351,168.016 534.026654,168.954657 536.48,170.832 C538.933346,172.709343 540.394664,175.546648 540.864,179.344 L536.832,179.344 Z M567.36,186.96 C567.317333,189.306678 567.679996,191.269325 568.448,192.848 C569.216004,194.426675 570.271993,195.685329 571.616,196.624 C572.960007,197.562671 574.549324,198.234665 576.384,198.64 C578.218676,199.045335 580.181323,199.248 582.272,199.248 C583.466673,199.248 584.767993,199.077335 586.176,198.736 C587.584007,198.394665 588.895994,197.85067 590.112,197.104 C591.328006,196.35733 592.341329,195.397339 593.152,194.224 C593.962671,193.050661 594.368,191.632008 594.368,189.968 C594.368,188.687994 594.080003,187.578671 593.504,186.64 C592.927997,185.701329 592.181338,184.912003 591.264,184.272 C590.346662,183.631997 589.333339,183.109335 588.224,182.704 C587.114661,182.298665 586.026672,181.968001 584.96,181.712 L574.784,179.216 C573.461327,178.874665 572.170673,178.448003 570.912,177.936 C569.653327,177.423997 568.554671,176.741338 567.616,175.888 C566.677329,175.034662 565.920003,173.98934 565.344,172.752 C564.767997,171.51466 564.48,170.000009 564.48,168.208 C564.48,167.098661 564.693331,165.797341 565.12,164.304 C565.546669,162.810659 566.346661,161.402673 567.52,160.08 C568.693339,158.757327 570.30399,157.637338 572.352,156.72 C574.40001,155.802662 577.023984,155.344 580.224,155.344 C582.485345,155.344 584.63999,155.642664 586.688,156.24 C588.73601,156.837336 590.527992,157.733327 592.064,158.928 C593.600008,160.122673 594.826662,161.605324 595.744,163.376 C596.661338,165.146676 597.12,167.205322 597.12,169.552 L592.768,169.552 C592.682666,167.802658 592.288004,166.27734 591.584,164.976 C590.879996,163.67466 589.962672,162.586671 588.832,161.712 C587.701328,160.837329 586.400007,160.176002 584.928,159.728 C583.455993,159.279998 581.909341,159.056 580.288,159.056 C578.794659,159.056 577.354674,159.215998 575.968,159.536 C574.581326,159.856002 573.365339,160.367996 572.32,161.072 C571.274661,161.776004 570.432003,162.703994 569.792,163.856 C569.151997,165.008006 568.832,166.437325 568.832,168.144 C568.832,169.210672 569.013332,170.138663 569.376,170.928 C569.738668,171.717337 570.239997,172.389331 570.88,172.944 C571.520003,173.498669 572.255996,173.946665 573.088,174.288 C573.920004,174.629335 574.805329,174.906666 575.744,175.12 L586.88,177.872 C588.501341,178.298669 590.02666,178.82133 591.456,179.44 C592.88534,180.05867 594.143995,180.826662 595.232,181.744 C596.320005,182.661338 597.17333,183.781327 597.792,185.104 C598.41067,186.426673 598.72,188.026657 598.72,189.904 C598.72,190.416003 598.666667,191.098662 598.56,191.952 C598.453333,192.805338 598.197335,193.711995 597.792,194.672 C597.386665,195.632005 596.81067,196.602662 596.064,197.584 C595.31733,198.565338 594.29334,199.450663 592.992,200.24 C591.69066,201.029337 590.08001,201.669331 588.16,202.16 C586.23999,202.650669 583.936013,202.896 581.248,202.896 C578.559987,202.896 576.064012,202.58667 573.76,201.968 C571.455988,201.34933 569.493341,200.400006 567.872,199.12 C566.250659,197.839994 565.002671,196.197343 564.128,194.192 C563.253329,192.186657 562.879999,189.776014 563.008,186.96 L567.36,186.96 Z M601.536,168.976 L605.824,168.976 L614.272,197.264 L614.4,197.264 L622.464,168.976 L627.008,168.976 L635.072,197.264 L635.2,197.264 L643.648,168.976 L647.936,168.976 L637.312,202 L632.896,202 L624.768,174.224 L624.64,174.224 L616.576,202 L612.16,202 L601.536,168.976 Z M651.904,179.088 C652.032001,177.16799 652.43733,175.504007 653.12,174.096 C653.80267,172.687993 654.730661,171.536004 655.904,170.64 C657.077339,169.743996 658.453325,169.082669 660.032,168.656 C661.610675,168.229331 663.35999,168.016 665.28,168.016 C666.730674,168.016 668.181326,168.154665 669.632,168.432 C671.082674,168.709335 672.383994,169.231996 673.536,170 C674.688006,170.768004 675.626663,171.845326 676.352,173.232 C677.077337,174.618674 677.44,176.421322 677.44,178.64 L677.44,196.176 C677.44,197.797341 678.229325,198.608 679.808,198.608 C680.277336,198.608 680.703998,198.522668 681.088,198.352 L681.088,201.744 C680.618664,201.829334 680.202668,201.893333 679.84,201.936 C679.477332,201.978667 679.018669,202 678.464,202 C677.439995,202 676.61867,201.861335 676,201.584 C675.38133,201.306665 674.901335,200.912003 674.56,200.4 C674.218665,199.887997 673.994667,199.280004 673.888,198.576 C673.781333,197.871996 673.728,197.093338 673.728,196.24 L673.6,196.24 C672.874663,197.306672 672.13867,198.255996 671.392,199.088 C670.64533,199.920004 669.813338,200.613331 668.896,201.168 C667.978662,201.722669 666.933339,202.149332 665.76,202.448 C664.586661,202.746668 663.189341,202.896 661.568,202.896 C660.031992,202.896 658.592007,202.714668 657.248,202.352 C655.903993,201.989332 654.730672,201.413337 653.728,200.624 C652.725328,199.834663 651.936003,198.832006 651.36,197.616 C650.783997,196.399994 650.496,194.960008 650.496,193.296 C650.496,190.991988 651.007995,189.18934 652.032,187.888 C653.056005,186.58666 654.410658,185.59467 656.096,184.912 C657.781342,184.22933 659.679989,183.749335 661.792,183.472 C663.904011,183.194665 666.047989,182.928001 668.224,182.672 C669.077338,182.586666 669.823997,182.480001 670.464,182.352 C671.104003,182.223999 671.637331,182.000002 672.064,181.68 C672.490669,181.359998 672.821332,180.922669 673.056,180.368 C673.290668,179.813331 673.408,179.088004 673.408,178.192 C673.408,176.82666 673.184002,175.706671 672.736,174.832 C672.287998,173.957329 671.669337,173.264003 670.88,172.752 C670.090663,172.239997 669.173339,171.888001 668.128,171.696 C667.082661,171.503999 665.962673,171.408 664.768,171.408 C662.207987,171.408 660.117341,172.015994 658.496,173.232 C656.874659,174.448006 656.021334,176.399987 655.936,179.088 L651.904,179.088 Z M673.408,183.952 L673.28,183.952 C673.023999,184.421336 672.533337,184.762666 671.808,184.976 C671.082663,185.189334 670.442669,185.338666 669.888,185.424 C668.181325,185.722668 666.421342,185.989332 664.608,186.224 C662.794658,186.458668 661.141341,186.810664 659.648,187.28 C658.154659,187.749336 656.928005,188.421329 655.968,189.296 C655.007995,190.170671 654.528,191.418659 654.528,193.04 C654.528,194.064005 654.730665,194.970663 655.136,195.76 C655.541335,196.549337 656.08533,197.231997 656.768,197.808 C657.45067,198.384003 658.239996,198.821332 659.136,199.12 C660.032004,199.418668 660.949329,199.568 661.888,199.568 C663.424008,199.568 664.895993,199.333336 666.304,198.864 C667.712007,198.394664 668.938661,197.712004 669.984,196.816 C671.029339,195.919996 671.86133,194.832006 672.48,193.552 C673.09867,192.271994 673.408,190.821341 673.408,189.2 L673.408,183.952 Z M685.504,168.976 L689.216,168.976 L689.216,175.248 L689.344,175.248 C690.282671,172.943988 691.807989,171.162673 693.92,169.904 C696.032011,168.645327 698.431987,168.016 701.12,168.016 C703.637346,168.016 705.823991,168.485329 707.68,169.424 C709.536009,170.362671 711.08266,171.631992 712.32,173.232 C713.55734,174.832008 714.474664,176.687989 715.072,178.8 C715.669336,180.912011 715.968,183.141322 715.968,185.488 C715.968,187.834678 715.669336,190.063989 715.072,192.176 C714.474664,194.288011 713.55734,196.143992 712.32,197.744 C711.08266,199.344008 709.536009,200.602662 707.68,201.52 C705.823991,202.437338 703.637346,202.896 701.12,202.896 C699.925327,202.896 698.730673,202.746668 697.536,202.448 C696.341327,202.149332 695.232005,201.701336 694.208,201.104 C693.183995,200.506664 692.277337,199.760004 691.488,198.864 C690.698663,197.967996 690.090669,196.922673 689.664,195.728 L689.536,195.728 L689.536,214.16 L685.504,214.16 L685.504,168.976 Z M711.936,185.488 C711.936,183.781325 711.733335,182.085342 711.328,180.4 C710.922665,178.714658 710.282671,177.210673 709.408,175.888 C708.533329,174.565327 707.41334,173.488004 706.048,172.656 C704.68266,171.823996 703.04001,171.408 701.12,171.408 C698.901322,171.408 697.045341,171.791996 695.552,172.56 C694.058659,173.328004 692.864004,174.351994 691.968,175.632 C691.071996,176.912006 690.442668,178.405325 690.08,180.112 C689.717332,181.818675 689.536,183.610657 689.536,185.488 C689.536,187.194675 689.738665,188.890658 690.144,190.576 C690.549335,192.261342 691.210662,193.765327 692.128,195.088 C693.045338,196.410673 694.239993,197.487996 695.712,198.32 C697.184007,199.152004 698.986656,199.568 701.12,199.568 C703.04001,199.568 704.68266,199.152004 706.048,198.32 C707.41334,197.487996 708.533329,196.410673 709.408,195.088 C710.282671,193.765327 710.922665,192.261342 711.328,190.576 C711.733335,188.890658 711.936,187.194675 711.936,185.488 Z M742.016,178.64 C741.973333,177.40266 741.717336,176.325338 741.248,175.408 C740.778664,174.490662 740.149337,173.733336 739.36,173.136 C738.570663,172.538664 737.664005,172.101335 736.64,171.824 C735.615995,171.546665 734.528006,171.408 733.376,171.408 C732.479996,171.408 731.573338,171.503999 730.656,171.696 C729.738662,171.888001 728.896004,172.207998 728.128,172.656 C727.359996,173.104002 726.741336,173.690663 726.272,174.416 C725.802664,175.141337 725.568,176.037328 725.568,177.104 C725.568,178.000004 725.791998,178.75733 726.24,179.376 C726.688002,179.99467 727.25333,180.517331 727.936,180.944 C728.61867,181.370669 729.365329,181.722665 730.176,182 C730.986671,182.277335 731.73333,182.501332 732.416,182.672 L737.792,183.888 C738.944006,184.058668 740.085328,184.367998 741.216,184.816 C742.346672,185.264002 743.349329,185.850663 744.224,186.576 C745.098671,187.301337 745.813331,188.197328 746.368,189.264 C746.922669,190.330672 747.2,191.589326 747.2,193.04 C747.2,194.832009 746.794671,196.357327 745.984,197.616 C745.173329,198.874673 744.138673,199.898663 742.88,200.688 C741.621327,201.477337 740.202675,202.042665 738.624,202.384 C737.045325,202.725335 735.488008,202.896 733.952,202.896 C730.069314,202.896 726.922679,201.978676 724.512,200.144 C722.101321,198.309324 720.725335,195.365354 720.384,191.312 L724.416,191.312 C724.586668,194.04268 725.578658,196.101326 727.392,197.488 C729.205342,198.874674 731.455987,199.568 734.144,199.568 C735.125338,199.568 736.138661,199.461334 737.184,199.248 C738.229339,199.034666 739.199996,198.672003 740.096,198.16 C740.992004,197.647997 741.727997,196.997337 742.304,196.208 C742.880003,195.418663 743.168,194.448006 743.168,193.296 C743.168,192.314662 742.965335,191.493337 742.56,190.832 C742.154665,190.170663 741.61067,189.616002 740.928,189.168 C740.24533,188.719998 739.466671,188.346668 738.592,188.048 C737.717329,187.749332 736.832004,187.493334 735.936,187.28 L730.752,186.128 C729.429327,185.786665 728.213339,185.392002 727.104,184.944 C725.994661,184.495998 725.024004,183.941337 724.192,183.28 C723.359996,182.618663 722.709336,181.808005 722.24,180.848 C721.770664,179.887995 721.536,178.704007 721.536,177.296 C721.536,175.631992 721.90933,174.202673 722.656,173.008 C723.40267,171.813327 724.373327,170.853337 725.568,170.128 C726.762673,169.402663 728.095993,168.869335 729.568,168.528 C731.040007,168.186665 732.501326,168.016 733.952,168.016 C735.616008,168.016 737.16266,168.229331 738.592,168.656 C740.02134,169.082669 741.279995,169.743996 742.368,170.64 C743.456005,171.536004 744.319997,172.645327 744.96,173.968 C745.600003,175.290673 745.962666,176.847991 746.048,178.64 L742.016,178.64 Z M792.576,154.768 C795.456,159.12 798.656,164.624 802.112,171.344 L798.784,173.328 C796.736,169.424 795.264,166.672 794.368,165.008 C792.704,162.064 791.04,159.312 789.312,156.688 L792.576,154.768 Z M819.584,156.88 L823.488,157.52 C821.44,168.912 817.92,178.448 812.864,186.128 C806.976,195.024 798.912,201.552 788.736,205.648 L786.368,202.32 C796.096,198.352 803.712,192.272 809.344,184.016 C814.208,176.848 817.6,167.76 819.584,156.88 Z M777.728,159.76 C780.8,164.368 784,169.936 787.328,176.464 L783.936,178.384 C782.144,174.928 780.736,172.24 779.584,170.192 C777.92,167.248 776.192,164.432 774.464,161.808 L777.728,159.76 Z" id="Cross-chain-Atomic-S"></path>
        </g>
    </g>
</svg>